<svg width="47.857040" height="60.000000" viewBox="0 0 47.857 60" fill="none" xmlns="http://www.w3.org/2000/svg" xmlns:xlink="http://www.w3.org/1999/xlink">
	<desc>
			Created with Pixso.
	</desc>
	<defs/>
	<path id="Vector" d="M46.82 25.49L41.07 9.74L41.07 1.42C41.07 0.63 40.43 0 39.64 0L8.21 0C7.42 0 6.78 0.63 6.78 1.42L6.78 9.74L1.03 25.49C0.34 27.36 -0.01 29.33 0 31.32L0 55.07C0 57.79 2.2 60 4.92 60L42.93 60C45.64 60 47.85 57.79 47.85 55.07L47.85 31.32C47.85 29.32 47.51 27.36 46.82 25.49ZM9.64 2.85L38.21 2.85L38.21 8.57L9.64 8.57L9.64 2.85ZM45 50.13L24.83 50.13C24.04 50.13 23.4 50.77 23.4 51.56C23.4 52.34 24.04 52.98 24.83 52.98L45 52.98L45 55.07C45 56.21 44.07 57.14 42.93 57.14L4.92 57.14C3.78 57.14 2.85 56.21 2.85 55.07L2.85 31.32C2.85 29.66 3.14 28.03 3.71 26.47L9.21 11.42L38.64 11.42L44.14 26.47C44.71 28.03 45 29.66 44.99 31.32L45 50.13ZM23.47 25.77C26.03 25.77 28.12 23.69 28.12 21.13C28.12 18.57 26.03 16.48 23.47 16.48C20.91 16.48 18.83 18.57 18.83 21.13C18.83 23.69 20.91 25.77 23.47 25.77ZM23.47 19.34C24.46 19.34 25.26 20.14 25.26 21.13C25.26 22.11 24.46 22.91 23.47 22.91C22.49 22.91 21.69 22.11 21.69 21.13C21.69 20.14 22.49 19.34 23.47 19.34ZM33.47 22.01C30.91 22.01 28.83 24.09 28.83 26.65C28.83 29.21 30.91 31.29 33.47 31.29C36.03 31.29 38.12 29.21 38.12 26.65C38.12 24.09 36.03 22.01 33.47 22.01ZM13.47 22.01C16.03 22.01 18.12 24.09 18.12 26.65C18.12 29.21 16.03 31.29 13.47 31.29C10.91 31.29 8.83 29.21 8.83 26.65C8.83 24.09 10.91 22.01 13.47 22.01ZM33.47 28.44C32.49 28.44 31.69 27.64 31.69 26.65C31.69 25.67 32.49 24.87 33.47 24.87C34.46 24.87 35.26 25.67 35.26 26.65C35.26 27.64 34.46 28.44 33.47 28.44ZM11.69 26.65C11.69 27.64 12.49 28.44 13.47 28.44C14.46 28.44 15.26 27.64 15.26 26.65C15.26 25.67 14.46 24.87 13.47 24.87C12.49 24.87 11.69 25.67 11.69 26.65ZM23.47 28.63C26.53 28.63 29.07 30.87 29.54 33.8C31.96 34.79 33.54 37.27 33.33 39.96C33.11 42.96 30.67 45.39 27.68 45.61C27.52 45.62 27.37 45.63 27.21 45.63C26.21 45.63 25.23 45.39 24.35 44.92C23.79 44.63 23.16 44.63 22.6 44.92C21.58 45.46 20.43 45.7 19.27 45.61C16.27 45.39 13.84 42.96 13.61 39.96C13.41 37.27 14.99 34.79 17.41 33.8C17.87 30.87 20.42 28.63 23.47 28.63ZM27.46 42.76C29.07 42.64 30.36 41.35 30.49 39.74C30.61 38.1 29.5 36.61 27.89 36.27C27.57 36.2 27.27 36.02 27.07 35.76C26.86 35.5 26.75 35.18 26.76 34.84L26.76 34.76C26.76 32.96 25.29 31.48 23.47 31.48C21.66 31.48 20.19 32.96 20.19 34.77L20.19 34.84C20.2 35.17 20.09 35.5 19.88 35.76C19.67 36.02 19.38 36.2 19.06 36.27C17.45 36.61 16.34 38.1 16.46 39.74C16.58 41.35 17.88 42.64 19.48 42.76C20.11 42.81 20.72 42.68 21.27 42.39C21.95 42.03 22.7 41.85 23.47 41.85C24.24 41.85 25 42.03 25.68 42.39C26.22 42.68 26.84 42.81 27.46 42.76ZM18.27 50.13L18.62 50.13C19.41 50.13 20.05 50.77 20.05 51.56C20.05 52.34 19.41 52.98 18.62 52.98L18.27 52.98C17.48 52.98 16.84 52.34 16.84 51.56C16.84 50.77 17.48 50.13 18.27 50.13Z" fill="#F1CDB3" fill-opacity="1.000000" fill-rule="evenodd"/>
</svg>
